<svg width="110" height="107" viewBox="0 0 110 107" fill="none" xmlns="http://www.w3.org/2000/svg">
  <path d="m105.269 34.12-.144-.11-.665-.498-.127-.092L63.916 3.143h-.005l-1.075-.803s-.006 0-.006-.006A13.6 13.6 0 0 0 55.186 0h-.075c-3.057 0-5.877 1-8.153 2.693-.058.04-.11.086-.168.127L5.726 33.576c-.006.006-.012.006-.017.011l-.451.341c-.006.006-.012.006-.017.012q-.65.51-1.231 1.092A13.64 13.64 0 0 0 0 44.71v48.426c0 7.557 6.13 13.688 13.688 13.688h5.593c12.487 0 22.656-10.071 22.725-22.558v-.294C42 83.926 42 83.874 42 83.827s0-.098.006-.144v-.006a17.2 17.2 0 0 0-.468-3.837 17.27 17.27 0 0 0-6.2-9.69 17.38 17.38 0 0 0-10.69-3.691h-.016a2.17 2.17 0 0 1-1.537-.636 2.17 2.17 0 0 1-.636-1.537c0-.6.243-1.144.636-1.537a2.17 2.17 0 0 1 1.537-.636c4.865 0 9.256-1.999 12.41-5.217A17.3 17.3 0 0 0 42 44.82v-.168c.018-.566.26-1.08.636-1.456a2.176 2.176 0 0 1 3.074 0c.393.393.635.936.635 1.537v.012a17.32 17.32 0 0 0 4.952 12.145c.046.046.087.093.133.139a17.3 17.3 0 0 0 12.284 5.084 2.166 2.166 0 0 1 2.172 2.173 2.174 2.174 0 0 1-2.155 2.173h-.011c-1.318 0-2.652.15-3.987.468a17.27 17.27 0 0 0-9.69 6.2 17.35 17.35 0 0 0-3.692 10.504v.098c0 .035.006.064.006.098v.416c.07 12.492 10.233 22.575 22.725 22.575h27.532a13.64 13.64 0 0 0 9.678-4.01 13.64 13.64 0 0 0 4.01-9.678V44.479a13.71 13.71 0 0 0-5.033-10.36m-18.131 9.793h-.006c-.67 0-1.346.075-2.022.237a8.78 8.78 0 0 0-4.917 3.149 8.8 8.8 0 0 0-1.872 5.327v.162a1.104 1.104 0 0 1-1.884.722 1.08 1.08 0 0 1-.318-.705v-.15a8.7 8.7 0 0 0-.237-1.947 8.82 8.82 0 0 0-8.575-6.79h-.005a1.1 1.1 0 0 1-.78-.323 1.08 1.08 0 0 1-.324-.78c0-.306.122-.578.324-.78a1.1 1.1 0 0 1 .78-.324 8.8 8.8 0 0 0 6.298-2.646 8.77 8.77 0 0 0 2.514-6.125v-.092a1.105 1.105 0 0 1 2.207.04v.012c0 1.202.243 2.346.676 3.386a8.9 8.9 0 0 0 1.837 2.78l.07.068a8.8 8.8 0 0 0 6.234 2.583c.306 0 .578.122.78.324.202.196.324.474.324.78a1.116 1.116 0 0 1-1.104 1.092" fill="#FF6D33"></path>
</svg>